     Dragon Age Dawn of the Seeker (2012)720p BDRip Eng(640kbps)-DGrea8


Summary:-


In the land of Orlais, where battles are fought with swords and magic,
a young heroine rises as templars, mages, and dragons clash. Cassandra,
a brash and beautiful Seeker, must stop a conspiracy that threatens the realm's most powerful religious order, the Chantry of Andraste. Accused of treasonous crimes and hunted by friend and foe, Cassandra must clear her name and overcome her raging emotions in order to save the day and take her place in legend.

Cast:-

Brina Palencia	     ...	Grand Cleric of Orlais
Colleen Clinkenbeard ...	Cassandra Pentaghast
Christopher Sabat    ...	Knight Commander
J. Michael Tatum     ...	Regalyan D'Marcall
Luci Christian	     ...	Revered Mother
John Swasey	     ...	Byron
Chuck Huber	     ...	Frenic
Mike McFarland	     ...	Lazarro
Pam Dougherty	     ...	Divine
R. Bruce Elliot	     ...	High Seeker


Video & Audio Info.:-

Video

Duration                         : 1h 29mn
Bit rate                         : 2 046 Kbps
Width                            : 1 280 pixels
Height                           : 720 pixels
Display aspect ratio             : 16:9
Frame rate                       : 23.976 fps
Color space                      : YUV
Chroma subsampling               : 4:2:0
Bit depth                        : 8 bits
Scan type                        : Progressive
Bits/(Pixel*Frame)               : 0.093
Stream size                      : 1.24 GiB (74%)

Audio

Format                           : AC-3
Format/Info                      : Audio Coding 3
Mode extension                   : CM (complete main)
Muxing mode                      : Header stripping
Codec ID                         : A_AC3
Duration                         : 1h 29mn
Bit rate mode                    : Constant
Bit rate                         : 640 Kbps
Channel(s)                       : 6 channels
Channel positions                : Front: L C R, Side: L R, LFE
Sampling rate                    : 48.0 KHz
Bit depth                        : 16 bits
Compression mode                 : Lossy
Stream size                      : 408 MiB (24%)
Title                            : 640 kbps
Language                         : English
Subtitle Language                : English

Screen Shoots:-
   
 
http://www.shotpix.com/images/25267130450185422955.jpg
 
http://www.shotpix.com/images/76566018546696229701.jpg
 
http://www.shotpix.com/images/10816046428220401845.jpg
 
http://www.shotpix.com/images/01888137681792210903.jpg
 
http://www.shotpix.com/images/84502599227781271039.jpg
 
http://www.shotpix.com/images/42096029609286856449.jpg



Note:--

Eng. Audio Org. BluRay Check The Sample Video In This Torrent	